<?xml version="1.0" encoding="UTF-8"?>
<svg width="446.88pt" height="446.88pt" version="1.2" viewBox="0 0 446.88 446.88" xmlns="http://www.w3.org/2000/svg" xmlns:cc="http://creativecommons.org/ns#" xmlns:dc="http://purl.org/dc/elements/1.1/" xmlns:rdf="http://www.w3.org/1999/02/22-rdf-syntax-ns#">
 <metadata>
  <rdf:RDF>
   <cc:Work rdf:about="">
    <dc:format>image/svg+xml</dc:format>
    <dc:type rdf:resource="http://purl.org/dc/dcmitype/StillImage"/>
    <dc:title/>
   </cc:Work>
  </rdf:RDF>
 </metadata>
 <g transform="translate(-256.56 -46.559)" fill-rule="evenodd">
  <path d="m495.48 266.34c0-19.121 15.199-34.621 33.961-34.621 18.758 0 33.957 15.5 33.957 34.621h-16.977c0-9.7383-7.6016-17.641-16.98-17.641-9.3828 0-16.98 7.9023-16.98 17.641z" fill="#143342"/>
  <path d="m342.36 266.34c0-19.121 15.23-34.621 34.02-34.621 18.793 0 34.02 15.5 34.02 34.621h-17.008c0-9.7305-7.6211-17.609-17.012-17.609-9.3906 0-17.008 7.8789-17.008 17.609z" fill="#143342"/>
  <path d="m404.76 296.28h97.918v12.688c0 27.062-21.918 48.992-48.961 48.992-27.039 0-48.957-21.93-48.957-48.992z" fill="#fff"/>
  <path d="m536.4 330c0-14.578 11.773-26.398 26.281-26.398 14.512 0 26.281 11.82 26.281 26.398 0 14.578-11.77 26.398-26.281 26.398-14.508 0-26.281-11.82-26.281-26.398z" fill="#123962"/>
  <path d="m318 336.72c0-14.578 11.789-26.398 26.34-26.398s26.34 11.82 26.34 26.398c0 14.582-11.789 26.402-26.34 26.402s-26.34-11.82-26.34-26.402z" fill="#123962"/>
 </g>
</svg>
